<svg xmlns="http://www.w3.org/2000/svg" viewBox="0 0 55.77 55.55"><defs><style>.cls-1{fill:#5d9f92;fill-rule:evenodd;}</style></defs><title>Ресурс 2</title><g id="Слой_2" data-name="Слой 2"><g id="Слой_1-2" data-name="Слой 1"><path class="cls-1" d="M9.68,49.09h2.51V39.41H10.72V38h5.22V50.78H9.68V49.09M14,32.77a1.95,1.95,0,1,1-2,1.94A1.95,1.95,0,0,1,14,32.77Z"/><path class="cls-1" d="M22,33.72a11.55,11.55,0,0,0-16.25,0,11.34,11.34,0,0,0,0,16.11,11.55,11.55,0,0,0,16.25,0,11.31,11.31,0,0,0,0-16.11M13.89,28a13.93,13.93,0,0,1,9.82,4,13.71,13.71,0,0,1,0,19.48,14,14,0,0,1-19.64,0A13.69,13.69,0,0,1,4.07,32,13.89,13.89,0,0,1,13.89,28Z"/><path class="cls-1" d="M37.68,21.09h2.51V11.41H38.72V10h5.22V22.78H37.68V21.09M42,4.77A1.95,1.95,0,1,1,40,6.71,1.95,1.95,0,0,1,42,4.77Z"/><path class="cls-1" d="M50,5.72a11.55,11.55,0,0,0-16.25,0,11.34,11.34,0,0,0,0,16.11,11.55,11.55,0,0,0,16.25,0A11.31,11.31,0,0,0,50,5.72M41.89,0a13.93,13.93,0,0,1,9.82,4,13.71,13.71,0,0,1,0,19.48,14,14,0,0,1-19.64,0A13.69,13.69,0,0,1,32.07,4,13.89,13.89,0,0,1,41.89,0Z"/></g></g></svg>