<svg xmlns="http://www.w3.org/2000/svg" viewBox="0 0 27.77 27.55"><defs><style>.cls-1{fill:#5d9f92;fill-rule:evenodd;}</style></defs><title>Ресурс 1</title><g id="Слой_2" data-name="Слой 2"><g id="Слой_1-2" data-name="Слой 1"><path class="cls-1" d="M9.68,21.09h2.51V11.41H10.72V10h5.22V22.78H9.68V21.09M14,4.77a1.95,1.95,0,1,1-2,1.94A1.95,1.95,0,0,1,14,4.77Z"/><path class="cls-1" d="M22,5.72a11.55,11.55,0,0,0-16.25,0,11.34,11.34,0,0,0,0,16.11,11.55,11.55,0,0,0,16.25,0A11.31,11.31,0,0,0,22,5.72M13.89,0a13.93,13.93,0,0,1,9.82,4,13.71,13.71,0,0,1,0,19.48,14,14,0,0,1-19.64,0A13.69,13.69,0,0,1,4.07,4,13.89,13.89,0,0,1,13.89,0Z"/></g></g></svg>