<svg xmlns="http://www.w3.org/2000/svg" viewBox="0 0 32.41 32.41"><defs><style>.cls-1{fill:#fff;}.cls-2{fill:#ffd400;fill-rule:evenodd;}</style></defs><title>Ресурс 4</title><g id="Слой_2" data-name="Слой 2"><g id="Слой_1-2" data-name="Слой 1"><rect class="cls-1" width="32.41" height="32.41"/><path class="cls-2" d="M15.82,2.91a2.75,2.75,0,1,1-2.75,2.75,2.75,2.75,0,0,1,2.75-2.75m-2.45,7.94-5,7.79L10.55,20l2.68-4.19V30H16V21.71h.47V30H19.2V15.86L21.86,20,24,18.64,19,10.74a1.19,1.19,0,0,0-.09-.15l0,0h0A1.41,1.41,0,0,0,17.73,10H14.66A1.41,1.41,0,0,0,13.37,10.85Z"/></g></g></svg>