<svg xmlns="http://www.w3.org/2000/svg" viewBox="0 0 32.41 32.41"><defs><style>.cls-1{fill:#fff;}.cls-2{fill:#ffd400;fill-rule:evenodd;}</style></defs><title>Ресурс 5</title><g id="Слой_2" data-name="Слой 2"><g id="Слой_1-2" data-name="Слой 1"><rect class="cls-1" width="32.41" height="32.41"/><path class="cls-2" d="M23.81,5.19A1.87,1.87,0,1,1,22,7.05a1.87,1.87,0,0,1,1.86-1.86m-1.66,5.38-3.37,5.27,1.47.94,1.81-2.84v9.63h1.86V17.92h.32v5.65H26.1V14l1.8,2.82,1.47-.94L26,10.49l-.06-.1,0,0h0a1,1,0,0,0-.76-.37H23A1,1,0,0,0,22.15,10.57Z"/><path class="cls-2" d="M9.43,5.19A1.87,1.87,0,1,1,7.56,7.05,1.87,1.87,0,0,1,9.43,5.19M7.77,10.57,4.4,15.84l1.46.94,1.81-2.84v9.63H9.53V17.92h.32v5.65h1.87V14l1.8,2.82L15,15.84l-3.42-5.35-.06-.1,0,0h0a.94.94,0,0,0-.76-.37H8.64A.94.94,0,0,0,7.77,10.57Z"/><path class="cls-2" d="M16.42,2.91a2.75,2.75,0,1,1-2.75,2.75,2.75,2.75,0,0,1,2.75-2.75M14,10.85,9,18.64,11.15,20l2.68-4.19V30h2.75V21.71h.47V30H19.8V15.86L22.46,20l2.16-1.38-5.05-7.9a1.19,1.19,0,0,0-.09-.15l0,0h0A1.41,1.41,0,0,0,18.33,10H15.26A1.41,1.41,0,0,0,14,10.85Z"/></g></g></svg>