<svg xmlns="http://www.w3.org/2000/svg" viewBox="0 0 308.52 66.9"><defs><style>.cls-1{fill:#ffd400;}</style></defs><title>Ресурс 2</title><g id="Слой_2" data-name="Слой 2"><g id="Слой_1-2" data-name="Слой 1"><path d="M293.8,37q0,4.1,2.51,4.1a3.81,3.81,0,0,0,.84-.07V32.25a3.57,3.57,0,0,0-.81-.1,2.05,2.05,0,0,0-1.88,1.16A7.88,7.88,0,0,0,293.8,37m10.73-.29a6.76,6.76,0,0,0-.67-3.41,2.08,2.08,0,0,0-1.9-1.19,3.82,3.82,0,0,0-.84.1v8.82a3.9,3.9,0,0,0,.87.08c1.55,0,2.49-1.17,2.53-3.54Zm-14.7,0a9.75,9.75,0,0,1,1.46-5.7,4.65,4.65,0,0,1,4-2.12,4.09,4.09,0,0,1,1.83.4V23l4,2.73v3.64a4.36,4.36,0,0,1,1.89-.41,4.66,4.66,0,0,1,4,2.11,10.43,10.43,0,0,1,1.47,6A8.74,8.74,0,0,1,307,42.39a4.74,4.74,0,0,1-4,2,4.56,4.56,0,0,1-1.91-.38v5.81l-4-2.85V44a4.43,4.43,0,0,1-1.85.37,4.72,4.72,0,0,1-3.86-1.8,7.72,7.72,0,0,1-1.6-4.93ZM284,36.49a5.86,5.86,0,0,0-.74-3.21,2.39,2.39,0,0,0-2.13-1.13,2.6,2.6,0,0,0-2.57,1.43v6.1a2.64,2.64,0,0,0,2.6,1.47Q284,41.15,284,36.49Zm4,.3a8.91,8.91,0,0,1-1.56,5.5,5,5,0,0,1-4.21,2.07,4.63,4.63,0,0,1-3.64-1.56v7l-4-3.3V29.22h3.69l.14,1.46a4.64,4.64,0,0,1,3.76-1.74,5,5,0,0,1,4.28,2,9.18,9.18,0,0,1,1.52,5.6Zm-33.62,4.53a3.46,3.46,0,0,0,1.62-.39,2.6,2.6,0,0,0,1.1-1V37.33h-1.48c-2,0-3.05.68-3.18,2.06v.23a1.58,1.58,0,0,0,.52,1.22A2,2,0,0,0,254.35,41.32Zm3.28,2.76a4.76,4.76,0,0,1-.4-1.33,4.77,4.77,0,0,1-3.75,1.61,5.3,5.3,0,0,1-3.62-1.26,4.08,4.08,0,0,1-1.44-3.2,4.22,4.22,0,0,1,1.76-3.63A8.68,8.68,0,0,1,255.24,35h1.83v-.84a2.43,2.43,0,0,0-.53-1.64,2.08,2.08,0,0,0-1.67-.61,2.41,2.41,0,0,0-1.57.47,1.61,1.61,0,0,0-.57,1.3h-4a4,4,0,0,1,.79-2.38,5.23,5.23,0,0,1,2.26-1.72,8.15,8.15,0,0,1,3.27-.63,6.49,6.49,0,0,1,4.36,1.38,4.81,4.81,0,0,1,1.62,3.88v6.45a7,7,0,0,0,.59,3.2v.23ZM239,38.59h-1.59v5.49h-4V29.22h4v5.57h1.42l3.24-5.57h5l-4.86,7.06,5.32,7.8h-5.29Zm-14.63-6.44a2.5,2.5,0,0,0-1.92.8,4.19,4.19,0,0,0-.94,2.29H227v-.31a2.94,2.94,0,0,0-.71-2A2.54,2.54,0,0,0,224.35,32.15Zm.45,12.21a7.3,7.3,0,0,1-5.33-2A7.1,7.1,0,0,1,217.42,37v-.39a8.94,8.94,0,0,1,.87-4,6.24,6.24,0,0,1,2.45-2.72,6.87,6.87,0,0,1,3.62-1,6.15,6.15,0,0,1,4.8,1.92,7.84,7.84,0,0,1,1.75,5.46V38h-9.46a3.63,3.63,0,0,0,1.16,2.33,3.51,3.51,0,0,0,2.45.87,4.32,4.32,0,0,0,3.59-1.65l1.95,2.18a6,6,0,0,1-2.42,2A7.81,7.81,0,0,1,224.8,44.36Zm-18.54-9.12h2.46c1.39,0,2.09-.46,2.09-1.33a1.23,1.23,0,0,0-.58-1.14,3.45,3.45,0,0,0-1.74-.34h-2.23Zm0,2.71v2.92h3.2c1.4,0,2.1-.48,2.1-1.43s-.67-1.48-2-1.49Zm-4,6.13V29.22h6.2a8.39,8.39,0,0,1,4.66,1.08,3.44,3.44,0,0,1,1.62,3.08,2.81,2.81,0,0,1-.68,1.85,4.26,4.26,0,0,1-2,1.25,4.8,4.8,0,0,1,2.51,1.19,2.94,2.94,0,0,1,.91,2.18A3.6,3.6,0,0,1,214,43a7.93,7.93,0,0,1-4.53,1.08ZM189.46,36.8a5.44,5.44,0,0,0,.8,3.23,2.61,2.61,0,0,0,2.27,1.12,2.65,2.65,0,0,0,2.26-1.1,6.08,6.08,0,0,0,.81-3.54,5.49,5.49,0,0,0-.81-3.22,2.63,2.63,0,0,0-2.28-1.14,2.6,2.6,0,0,0-2.25,1.13A6.13,6.13,0,0,0,189.46,36.8Zm-4-.28a8.82,8.82,0,0,1,.85-4,6.24,6.24,0,0,1,2.45-2.68,7.2,7.2,0,0,1,3.72-.95,6.81,6.81,0,0,1,4.91,1.84,7.37,7.37,0,0,1,2.12,5l0,1a7.76,7.76,0,0,1-1.91,5.49,7.4,7.4,0,0,1-10.26,0,7.9,7.9,0,0,1-1.91-5.61ZM183,29.22V44.08h-4V32.43h-3.5L175.32,37a10.49,10.49,0,0,1-1.44,5.34,4.26,4.26,0,0,1-3.6,1.72h-1.35l0-3.21.5,0A1.82,1.82,0,0,0,171,39.56a12.83,12.83,0,0,0,.62-4l.27-6.32ZM161.3,32.15a2.49,2.49,0,0,0-1.91.8,4.12,4.12,0,0,0-.94,2.29H164v-.31a3,3,0,0,0-.71-2A2.55,2.55,0,0,0,161.3,32.15Zm.46,12.21a7.3,7.3,0,0,1-5.33-2A7.1,7.1,0,0,1,154.38,37v-.39a8.94,8.94,0,0,1,.87-4,6.24,6.24,0,0,1,2.45-2.72,6.85,6.85,0,0,1,3.62-1,6.18,6.18,0,0,1,4.8,1.92,7.84,7.84,0,0,1,1.75,5.46V38h-9.46a3.66,3.66,0,0,0,1.15,2.33,3.56,3.56,0,0,0,2.46.87,4.32,4.32,0,0,0,3.59-1.65l1.95,2.18a6,6,0,0,1-2.42,2A7.84,7.84,0,0,1,161.76,44.36Zm-10.2-17.78v17.5h-4.13v-7.6a18.64,18.64,0,0,1-3.93.4,8.81,8.81,0,0,1-5.78-1.66,6.12,6.12,0,0,1-2-4.81V24.07l3.48,2.46.66,3.8a4.27,4.27,0,0,0,.83,2.47,4.2,4.2,0,0,0,2.84.76,19.33,19.33,0,0,0,3.93-.4V24.07ZM122.78,36.8a5.52,5.52,0,0,0,.79,3.23,2.62,2.62,0,0,0,2.28,1.12,2.65,2.65,0,0,0,2.25-1.1,6,6,0,0,0,.82-3.54,5.42,5.42,0,0,0-.82-3.22,2.83,2.83,0,0,0-4.53,0A6.21,6.21,0,0,0,122.78,36.8Zm-4-.28a8.82,8.82,0,0,1,.86-4,6.24,6.24,0,0,1,2.45-2.68,7.17,7.17,0,0,1,3.72-.95,6.81,6.81,0,0,1,4.91,1.84,7.41,7.41,0,0,1,2.12,5l0,1A7.76,7.76,0,0,1,131,42.29a7.4,7.4,0,0,1-10.26,0,7.91,7.91,0,0,1-1.92-5.61Zm-5.8,0a5.86,5.86,0,0,0-.74-3.21,2.37,2.37,0,0,0-2.13-1.13,2.6,2.6,0,0,0-2.57,1.43v6.1a2.64,2.64,0,0,0,2.6,1.47Q113,41.15,113,36.49Zm4,.3a8.89,8.89,0,0,1-1.56,5.5,5,5,0,0,1-4.21,2.07,4.63,4.63,0,0,1-3.64-1.56v7h-4V29.22l3.82,1.46a4.64,4.64,0,0,1,3.76-1.74,5,5,0,0,1,4.28,2,9.18,9.18,0,0,1,1.52,5.6Zm-16.74,7.29H96.1V27.42h-8V44.08H84v-20h16.26Z"/><rect class="cls-1" x="265.08" y="40.37" width="6.41" height="6.41"/><rect class="cls-1" width="66.9" height="66.9"/></g></g></svg>